HIERARCHY
ROOT mixamorig:Hips
{
	OFFSET 0.000000 201.639420 0.000000
	CHANNELS 6 Xposition Yposition Zposition Xrotation Yrotation Zrotation
	JOINT mixamorig:Spine
	{
		OFFSET 0.006200 19.524994 -2.481800
		CHANNELS 3 Xrotation Yrotation Zrotation
		JOINT mixamorig:Spine1
		{
			OFFSET -0.000900 22.835007 -2.825400
			CHANNELS 3 Xrotation Yrotation Zrotation
			JOINT mixamorig:Spine2
			{
				OFFSET -0.020600 26.552490 -3.193300
				CHANNELS 3 Xrotation Yrotation Zrotation
				JOINT mixamorig:Neck
				{
					OFFSET -0.060000 30.701813 1.352200
					CHANNELS 3 Xrotation Yrotation Zrotation
					JOINT mixamorig:Head
					{
						OFFSET -0.087200 22.547607 3.670900
						CHANNELS 3 Xrotation Yrotation Zrotation
						JOINT mixamorig:HeadTop_End
						{
							OFFSET -0.830600 40.355194 7.893500
							CHANNELS 3 Xrotation Yrotation Zrotation
							End Site
							{
								OFFSET 0.000000 30.592346 0.000000
							}
						}
						JOINT mixamorig:RightEye
						{
							OFFSET -6.302100 18.118591 16.197100
							CHANNELS 3 Xrotation Yrotation Zrotation
							End Site
							{
								OFFSET 0.000000 30.592346 0.000000
							}
						}
						JOINT mixamorig:LeftEye
						{
							OFFSET 6.741500 18.382690 16.401899
							CHANNELS 3 Xrotation Yrotation Zrotation
							End Site
							{
								OFFSET 0.000000 30.592346 0.000000
							}
						}
					}
				}
				JOINT mixamorig:LeftShoulder
				{
					OFFSET 11.924900 18.230499 1.425400
					CHANNELS 3 Xrotation Yrotation Zrotation
					JOINT mixamorig:LeftArm
					{
						OFFSET 25.435989 -0.697632 -5.229300
						CHANNELS 3 Xrotation Yrotation Zrotation
						JOINT mixamorig:LeftForeArm
						{
							OFFSET 54.684776 0.000000 0.000000
							CHANNELS 3 Xrotation Yrotation Zrotation
							JOINT mixamorig:LeftHand
							{
								OFFSET 55.098175 0.000000 0.000000
								CHANNELS 3 Xrotation Yrotation Zrotation
								JOINT mixamorig:LeftHandMiddle1
								{
									OFFSET 23.369751 0.000000 0.000000
									CHANNELS 3 Xrotation Yrotation Zrotation
									JOINT mixamorig:LeftHandMiddle2
									{
										OFFSET 6.378677 0.000000 0.000000
										CHANNELS 3 Xrotation Yrotation Zrotation
										JOINT mixamorig:LeftHandMiddle3
										{
											OFFSET 6.148331 0.000000 0.000000
											CHANNELS 3 Xrotation Yrotation Zrotation
											JOINT mixamorig:LeftHandMiddle4
											{
												OFFSET 6.582504 0.000000 0.000000
												CHANNELS 3 Xrotation Yrotation Zrotation
												End Site
												{
													OFFSET -1.168900 6.395691 1.028606
												}
											}
										}
									}
								}
								JOINT mixamorig:LeftHandThumb1
								{
									OFFSET 7.235672 -3.848206 5.434273
									CHANNELS 3 Xrotation Yrotation Zrotation
									JOINT mixamorig:LeftHandThumb2
									{
										OFFSET 6.568451 -3.792297 3.792300
										CHANNELS 3 Xrotation Yrotation Zrotation
										JOINT mixamorig:LeftHandThumb3
										{
											OFFSET 6.063080 -3.500519 3.500518
											CHANNELS 3 Xrotation Yrotation Zrotation
											JOINT mixamorig:LeftHandThumb4
											{
												OFFSET 4.793182 -2.767334 2.767349
												CHANNELS 3 Xrotation Yrotation Zrotation
												End Site
												{
													OFFSET 0.101639 6.054260 1.275483
												}
											}
										}
									}
								}
								JOINT mixamorig:LeftHandIndex1
								{
									OFFSET 23.101074 -0.309540 4.992809
									CHANNELS 3 Xrotation Yrotation Zrotation
									JOINT mixamorig:LeftHandIndex2
									{
										OFFSET 6.226883 0.000000 0.000000
										CHANNELS 3 Xrotation Yrotation Zrotation
										JOINT mixamorig:LeftHandIndex3
										{
											OFFSET 6.094330 0.000000 0.000000
											CHANNELS 3 Xrotation Yrotation Zrotation
											JOINT mixamorig:LeftHandIndex4
											{
												OFFSET 5.482605 0.000000 0.000000
												CHANNELS 3 Xrotation Yrotation Zrotation
												End Site
												{
													OFFSET -1.427902 5.233032 0.797164
												}
											}
										}
									}
								}
								JOINT mixamorig:LeftHandRing1
								{
									OFFSET 22.299240 0.021149 -3.964172
									CHANNELS 3 Xrotation Yrotation Zrotation
									JOINT mixamorig:LeftHandRing2
									{
										OFFSET 6.321869 0.000000 0.000000
										CHANNELS 3 Xrotation Yrotation Zrotation
										JOINT mixamorig:LeftHandRing3
										{
											OFFSET 5.899796 0.000000 0.000000
											CHANNELS 3 Xrotation Yrotation Zrotation
											JOINT mixamorig:LeftHandRing4
											{
												OFFSET 6.517899 0.000000 0.000000
												CHANNELS 3 Xrotation Yrotation Zrotation
												End Site
												{
													OFFSET -1.637299 6.232208 0.980890
												}
											}
										}
									}
								}
								JOINT mixamorig:LeftHandPinky1
								{
									OFFSET 20.463791 -0.302338 -8.562233
									CHANNELS 3 Xrotation Yrotation Zrotation
									JOINT mixamorig:LeftHandPinky2
									{
										OFFSET 6.908646 0.000000 0.000000
										CHANNELS 3 Xrotation Yrotation Zrotation
										JOINT mixamorig:LeftHandPinky3
										{
											OFFSET 4.622849 0.000000 0.000000
											CHANNELS 3 Xrotation Yrotation Zrotation
											JOINT mixamorig:LeftHandPinky4
											{
												OFFSET 5.216080 0.000000 0.000000
												CHANNELS 3 Xrotation Yrotation Zrotation
												End Site
												{
													OFFSET -0.606308 5.116241 0.814926
												}
											}
										}
									}
								}
							}
						}
					}
				}
				JOINT mixamorig:RightShoulder
				{
					OFFSET -12.001300 18.284088 1.348900
					CHANNELS 3 Xrotation Yrotation Zrotation
					JOINT mixamorig:RightArm
					{
						OFFSET -25.308500 -0.751312 -5.164599
						CHANNELS 3 Xrotation Yrotation Zrotation
						JOINT mixamorig:RightForeArm
						{
							OFFSET -54.684429 0.000000 0.000000
							CHANNELS 3 Xrotation Yrotation Zrotation
							JOINT mixamorig:RightHand
							{
								OFFSET -55.150291 0.000000 0.000000
								CHANNELS 3 Xrotation Yrotation Zrotation
								JOINT mixamorig:RightHandMiddle1
								{
									OFFSET -23.317566 0.000000 0.000000
									CHANNELS 3 Xrotation Yrotation Zrotation
									JOINT mixamorig:RightHandMiddle2
									{
										OFFSET -6.378403 0.000000 0.000000
										CHANNELS 3 Xrotation Yrotation Zrotation
										JOINT mixamorig:RightHandMiddle3
										{
											OFFSET -6.148193 0.000000 0.000000
											CHANNELS 3 Xrotation Yrotation Zrotation
											JOINT mixamorig:RightHandMiddle4
											{
												OFFSET -6.583389 0.000000 0.000000
												CHANNELS 3 Xrotation Yrotation Zrotation
												End Site
												{
													OFFSET 1.171692 6.395905 1.029786
												}
											}
										}
									}
								}
								JOINT mixamorig:RightHandThumb1
								{
									OFFSET -7.190521 -3.860474 5.435846
									CHANNELS 3 Xrotation Yrotation Zrotation
									JOINT mixamorig:RightHandThumb2
									{
										OFFSET -6.567429 -3.791718 3.791708
										CHANNELS 3 Xrotation Yrotation Zrotation
										JOINT mixamorig:RightHandThumb3
										{
											OFFSET -6.062469 -3.500153 3.500166
											CHANNELS 3 Xrotation Yrotation Zrotation
											JOINT mixamorig:RightHandThumb4
											{
												OFFSET -4.792618 -2.767029 2.767022
												CHANNELS 3 Xrotation Yrotation Zrotation
												End Site
												{
													OFFSET -0.100327 6.053253 1.276754
												}
											}
										}
									}
								}
								JOINT mixamorig:RightHandIndex1
								{
									OFFSET -23.048981 -0.310791 4.992554
									CHANNELS 3 Xrotation Yrotation Zrotation
									JOINT mixamorig:RightHandIndex2
									{
										OFFSET -6.227539 0.000000 0.000000
										CHANNELS 3 Xrotation Yrotation Zrotation
										JOINT mixamorig:RightHandIndex3
										{
											OFFSET -6.095047 0.000000 0.000000
											CHANNELS 3 Xrotation Yrotation Zrotation
											JOINT mixamorig:RightHandIndex4
											{
												OFFSET -5.484772 0.000000 0.000000
												CHANNELS 3 Xrotation Yrotation Zrotation
												End Site
												{
													OFFSET 1.420593 5.237305 0.797056
												}
											}
										}
									}
								}
								JOINT mixamorig:RightHandRing1
								{
									OFFSET -22.246323 0.020569 -3.963762
									CHANNELS 3 Xrotation Yrotation Zrotation
									JOINT mixamorig:RightHandRing2
									{
										OFFSET -6.322128 0.000000 0.000000
										CHANNELS 3 Xrotation Yrotation Zrotation
										JOINT mixamorig:RightHandRing3
										{
											OFFSET -5.900024 0.000000 0.000000
											CHANNELS 3 Xrotation Yrotation Zrotation
											JOINT mixamorig:RightHandRing4
											{
												OFFSET -6.518356 0.000000 0.000000
												CHANNELS 3 Xrotation Yrotation Zrotation
												End Site
												{
													OFFSET 1.636398 6.232697 0.982186
												}
											}
										}
									}
								}
								JOINT mixamorig:RightHandPinky1
								{
									OFFSET -20.411011 -0.303314 -8.561701
									CHANNELS 3 Xrotation Yrotation Zrotation
									JOINT mixamorig:RightHandPinky2
									{
										OFFSET -6.907349 0.000000 0.000000
										CHANNELS 3 Xrotation Yrotation Zrotation
										JOINT mixamorig:RightHandPinky3
										{
											OFFSET -4.623840 0.000000 0.000000
											CHANNELS 3 Xrotation Yrotation Zrotation
											JOINT mixamorig:RightHandPinky4
											{
												OFFSET -5.218353 0.000000 0.000000
												CHANNELS 3 Xrotation Yrotation Zrotation
												End Site
												{
													OFFSET 0.602097 5.118835 0.816273
												}
											}
										}
									}
								}
							}
						}
					}
				}
			}
		}
	}
	JOINT mixamorig:LeftUpLeg
	{
		OFFSET 18.168400 -13.561905 -0.039000
		CHANNELS 3 Xrotation Yrotation Zrotation
		JOINT mixamorig:LeftLeg
		{
			OFFSET 0.577358 -80.825211 -3.695000
			CHANNELS 3 Xrotation Yrotation Zrotation
			JOINT mixamorig:LeftFoot
			{
				OFFSET -0.577356 -83.370262 -6.520700
				CHANNELS 3 Xrotation Yrotation Zrotation
				JOINT mixamorig:LeftToeBase
				{
					OFFSET 0.750401 -20.798306 25.135401
					CHANNELS 3 Xrotation Yrotation Zrotation
					JOINT mixamorig:LeftToe_End
					{
						OFFSET -0.000500 0.001200 19.917799
						CHANNELS 3 Xrotation Yrotation Zrotation
						End Site
						{
							OFFSET 0.000000 19.917805 0.000000
						}
					}
				}
			}
		}
	}
	JOINT mixamorig:RightUpLeg
	{
		OFFSET -18.162500 -13.585098 -0.041000
		CHANNELS 3 Xrotation Yrotation Zrotation
		JOINT mixamorig:RightLeg
		{
			OFFSET -0.595024 -80.945297 -3.631900
			CHANNELS 3 Xrotation Yrotation Zrotation
			JOINT mixamorig:RightFoot
			{
				OFFSET 0.595024 -83.218193 -6.561200
				CHANNELS 3 Xrotation Yrotation Zrotation
				JOINT mixamorig:RightToeBase
				{
					OFFSET -0.753601 -20.807106 25.115000
					CHANNELS 3 Xrotation Yrotation Zrotation
					JOINT mixamorig:RightToe_End
					{
						OFFSET 0.000299 0.001700 19.918200
						CHANNELS 3 Xrotation Yrotation Zrotation
						End Site
						{
							OFFSET 0.000000 19.918203 0.000000
						}
					}
				}
			}
		}
	}
}
MOTION
Frames: 5
Frame Time: 0.033333
-0.659256 110.836746 -4.327490 25.329398 -34.242771 27.686032 12.498077 2.118095 -9.114756 9.409269 -0.706237 -3.300598 9.406632 -0.740874 -3.297686 -2.610132 2.145506 -2.637174 -27.308090 8.905587 -0.776560 -0.000001 0.000001 0.000000 -0.000001 0.000001 0.000000 -0.000001 0.000001 0.000000 1.025607 -5.629396 5.606038 -66.137391 -52.468229 -58.243263 0.000009 -28.781065 0.000001 -21.536744 -16.382660 48.510234 0.045131 0.788681 -6.549865 0.000005 0.001920 -0.015979 -0.000001 0.000005 -0.000010 0.000003 0.000000 -0.000002 -6.954683 -8.811254 5.185353 -1.989399 3.130510 -4.068791 -3.382427 -0.874818 -0.313135 0.000004 0.000001 0.000000 0.045359 0.790575 -6.565847 0.000001 0.000020 -0.000026 0.000002 -0.000009 -0.000004 -0.000001 0.000000 -0.000000 0.045363 0.790595 -6.565833 -0.000005 -0.000003 -0.000006 0.000002 0.000008 -0.000001 0.000001 0.000001 -0.000001 0.492225 4.820255 -6.077301 -0.018082 -4.054257 -0.511063 0.000006 0.000003 -0.000009 -0.000001 -0.000000 0.000001 2.403243 13.837116 -4.434252 -98.958260 54.920721 78.848749 0.000013 0.041121 -0.000013 5.770996 28.877473 -40.934758 0.056679 -0.887827 7.305589 0.000006 -0.000018 0.000007 0.000000 0.000007 0.000010 0.000003 -0.000000 -0.000001 -8.454719 5.998799 -1.058915 7.458075 -2.671650 -8.065758 -0.073011 3.336632 -6.141458 0.000004 -0.000003 -0.000003 0.056682 -0.887818 7.305592 0.000003 -0.000025 0.000080 -0.000007 0.000007 0.000009 0.000003 0.000002 0.000001 0.056685 -0.887828 7.305590 0.000000 0.000003 0.000020 -0.000004 -0.000016 -0.000002 -0.000002 0.000001 0.000001 0.056689 -0.887825 7.305597 0.000006 -0.000012 0.000011 0.000001 -0.000007 -0.000000 -0.000001 -0.000000 -0.000001 -117.695607 5.187573 22.152252 90.239981 7.806629 0.193465 9.405325 -0.247868 -6.336411 -0.546316 -0.000000 0.000001 -0.000000 0.000000 0.000000 -56.610131 -4.468842 -23.143772 121.029695 1.044719 -2.583646 13.654352 15.251949 30.223601 -83.863487 2.746861 -4.494707 0.000002 0.000000 0.000000 
-0.754532 110.820236 -4.447630 25.496014 -34.223342 27.706266 12.486627 2.066402 -9.237416 9.411021 -0.713918 -3.365066 9.408548 -0.741165 -3.363646 -2.493331 2.090712 -2.492502 -27.313932 8.773521 -0.753558 -0.000003 -0.000002 0.000001 -0.000003 -0.000002 0.000001 -0.000003 -0.000002 0.000001 1.010913 -5.525864 5.493245 -65.676428 -53.136877 -57.662219 -0.000004 -27.865145 -0.000002 -21.863297 -16.702201 48.303156 0.062020 0.924031 -7.680500 -0.000007 0.001937 -0.015975 0.000009 0.000003 -0.000010 0.000004 0.000001 0.000001 -6.661341 -8.603675 5.269851 -1.989410 3.130504 -4.068802 -3.382404 -0.874821 -0.313142 -0.000003 -0.000000 -0.000001 0.062283 0.925934 -7.696487 -0.000008 0.000007 -0.000013 0.000006 0.000001 -0.000010 -0.000005 -0.000000 0.000001 0.062279 0.925940 -7.696482 -0.000003 0.000004 0.000000 0.000007 -0.000002 -0.000012 0.000002 0.000000 -0.000000 0.588882 4.946000 -7.213041 -0.018089 -4.054258 -0.511070 -0.000002 -0.000008 -0.000016 0.000000 0.000001 0.000001 2.448905 14.024345 -4.357880 -98.952611 54.958448 78.851850 -0.000004 0.024692 0.000001 5.615935 28.763450 -41.031979 0.056675 -0.887835 7.305584 0.000002 -0.000024 0.000006 0.000004 0.000015 0.000014 -0.000001 -0.000000 0.000001 -8.454717 5.998775 -1.058926 7.458065 -2.671619 -8.065743 -0.073004 3.336636 -6.141458 0.000000 0.000000 -0.000001 0.056679 -0.887844 7.305579 0.000004 -0.000001 0.000015 0.000003 -0.000011 0.000005 -0.000003 -0.000000 -0.000002 0.056671 -0.887833 7.305589 0.000009 -0.000019 0.000008 -0.000001 -0.000002 0.000006 -0.000000 -0.000000 0.000000 0.056680 -0.887844 7.305581 -0.000000 -0.000000 0.000013 -0.000004 0.000002 0.000013 -0.000001 0.000000 -0.000000 -117.739170 4.831257 21.809241 90.150574 8.108412 0.271896 9.613926 -0.270915 -6.549248 -0.593740 0.000002 -0.000002 -0.000000 -0.000001 0.000000 -56.804904 -4.590109 -23.010434 121.012087 1.114112 -2.575219 13.736444 15.219294 30.012825 -83.999053 2.854113 -4.666509 -0.000001 0.000001 -0.000000 
-0.871460 110.827988 -4.543100 25.657923 -34.189270 27.700592 12.437296 2.067776 -9.352669 9.389130 -0.687798 -3.419833 9.386698 -0.704580 -3.421140 -2.264894 2.023838 -2.341415 -27.335206 8.585112 -0.688640 -0.000001 0.000001 0.000000 -0.000001 0.000001 0.000000 -0.000001 0.000001 0.000000 1.014557 -5.545081 5.400419 -65.149664 -53.759879 -57.078860 0.000003 -26.838941 0.000008 -22.214910 -17.103229 48.056767 0.069583 0.978430 -8.135863 -0.000006 0.001928 -0.015982 -0.000015 0.000020 0.000000 -0.000002 0.000000 0.000000 -6.497537 -8.493022 5.317586 -1.989413 3.130519 -4.068793 -3.382419 -0.874822 -0.313115 0.000001 -0.000001 -0.000001 0.069865 0.980348 -8.151841 -0.000005 -0.000005 -0.000016 0.000012 0.000014 -0.000004 -0.000000 0.000000 -0.000002 0.069857 0.980340 -8.151844 -0.000001 0.000003 -0.000010 -0.000001 0.000010 -0.000010 -0.000004 -0.000000 0.000001 0.628526 4.996080 -7.670559 -0.018089 -4.054251 -0.511075 -0.000001 0.000021 0.000005 -0.000002 0.000001 0.000002 2.524436 14.295611 -4.197296 -98.588952 55.169552 78.533939 -0.000002 0.018443 -0.000015 5.404523 28.770225 -41.064077 0.056681 -0.887814 7.305599 -0.000006 -0.000009 0.000018 0.000000 0.000002 -0.000000 0.000000 -0.000001 -0.000002 -8.454721 5.998789 -1.058923 7.458072 -2.671637 -8.065742 -0.073013 3.336655 -6.141450 0.000003 -0.000001 -0.000001 0.056677 -0.887816 7.305600 -0.000005 -0.000002 0.000026 0.000007 -0.000008 -0.000005 0.000002 -0.000003 0.000001 0.056676 -0.887820 7.305599 -0.000002 -0.000004 0.000056 -0.000004 0.000010 0.000013 0.000002 -0.000000 -0.000003 0.056671 -0.887805 7.305610 0.000009 -0.000025 0.000007 0.000006 0.000006 0.000008 -0.000003 0.000000 -0.000001 -117.780096 4.485238 21.550869 90.067430 8.280761 0.287018 9.787089 -0.290973 -6.727869 -0.632204 0.000004 0.000002 0.000000 -0.000001 -0.000000 -56.981717 -4.741413 -22.833112 120.982007 1.194178 -2.569781 13.761737 15.144645 29.812601 -84.078488 2.976966 -4.871007 -0.000001 0.000000 -0.000000 
-0.999649 110.844986 -4.618069 25.827901 -34.132194 27.682413 12.349350 2.121310 -9.438062 9.342895 -0.633138 -3.455424 9.340311 -0.638965 -3.460034 -1.956705 1.954372 -2.220357 -27.325809 8.370798 -0.641426 -0.000001 0.000002 -0.000001 -0.000001 0.000002 -0.000001 -0.000001 0.000002 -0.000001 1.035507 -5.682057 5.303473 -64.662152 -54.345681 -56.614615 0.000002 -25.676465 0.000003 -22.590562 -17.655629 47.774950 0.070418 0.984162 -8.183682 -0.000006 0.001911 -0.016004 0.000009 -0.000003 0.000003 -0.000004 -0.000001 -0.000002 -6.638099 -8.607339 5.278325 -1.989412 3.130515 -4.068803 -3.382441 -0.874822 -0.313135 0.000002 -0.000000 0.000001 0.070693 0.986073 -8.199669 -0.000002 -0.000018 -0.000011 0.000004 -0.000010 -0.000009 0.000002 -0.000000 0.000000 0.070687 0.986070 -8.199674 -0.000001 -0.000008 -0.000015 0.000001 -0.000001 -0.000002 0.000000 -0.000002 -0.000001 0.632741 5.001346 -7.718617 -0.018100 -4.054258 -0.511073 0.000005 -0.000011 -0.000015 0.000001 0.000001 0.000002 2.618804 14.617110 -3.976971 -97.881091 55.550543 77.898683 0.000002 0.016215 -0.000001 5.168252 28.915913 -41.027532 0.056679 -0.887844 7.305588 0.000004 -0.000006 0.000010 -0.000001 0.000005 0.000007 0.000006 -0.000002 0.000000 -8.454707 5.998772 -1.058927 7.458066 -2.671630 -8.065750 -0.073019 3.336651 -6.141466 0.000002 0.000002 -0.000004 0.056677 -0.887837 7.305592 0.000003 -0.000005 0.000018 0.000008 0.000009 0.000014 -0.000000 0.000000 0.000000 0.056677 -0.887841 7.305588 0.000005 -0.000002 0.000042 0.000006 0.000004 0.000005 0.000000 -0.000000 0.000001 0.056691 -0.887849 7.305578 -0.000007 0.000019 0.000030 0.000005 -0.000011 -0.000001 -0.000003 0.000001 -0.000001 -117.857045 4.196553 21.416558 89.996587 8.306354 0.251793 9.924872 -0.305566 -6.835282 -0.664398 0.000002 -0.000001 -0.000000 -0.000001 0.000000 -57.146297 -4.895125 -22.607561 120.953552 1.281512 -2.568053 13.641662 15.110745 29.653328 -84.084649 3.174151 -5.212851 0.000001 -0.000000 0.000000 
-1.128128 110.856445 -4.681072 25.985511 -34.029041 27.660128 12.233688 2.206829 -9.478976 9.277576 -0.566469 -3.465400 9.274761 -0.563375 -3.473088 -1.640452 1.894076 -2.149982 -27.252742 8.175648 -0.651344 -0.000001 -0.000000 0.000001 -0.000001 -0.000000 0.000001 -0.000001 -0.000000 0.000001 1.066137 -5.887871 5.194719 -64.281308 -54.886881 -56.327580 -0.000003 -24.475687 -0.000004 -22.953455 -18.317092 47.491569 0.067391 0.962962 -8.006209 0.000005 0.001939 -0.015982 -0.000012 -0.000000 -0.000007 -0.000001 -0.000000 -0.000001 -6.904625 -8.812555 5.202981 -1.989421 3.130502 -4.068821 -3.382414 -0.874803 -0.313121 0.000004 -0.000000 -0.000001 0.067669 0.964870 -8.022196 0.000001 0.000010 0.000000 -0.000005 -0.000008 -0.000008 0.000001 0.000000 -0.000000 0.067673 0.964879 -8.022190 -0.000016 -0.000008 -0.000021 0.000002 0.000000 -0.000005 0.000002 -0.000000 0.000001 0.617211 4.981863 -7.540304 -0.018096 -4.054244 -0.511058 -0.000007 0.000006 0.000007 -0.000004 -0.000000 -0.000000 2.713027 14.925242 -3.739818 -96.995011 56.034653 77.086178 0.000009 -0.000004 -0.000009 4.975429 29.143577 -40.968585 0.056693 -0.887835 7.305593 -0.000006 0.000002 0.000024 0.000011 -0.000004 0.000013 0.000002 -0.000001 -0.000001 -8.454705 5.998776 -1.058928 7.458065 -2.671654 -8.065752 -0.073007 3.336661 -6.141451 0.000001 0.000001 -0.000000 0.056696 -0.887831 7.305592 -0.000002 -0.000024 0.000010 0.000012 0.000002 0.000007 -0.000000 -0.000002 -0.000003 0.056692 -0.887826 7.305598 -0.000001 -0.000020 0.000005 -0.000004 -0.000002 0.000006 0.000001 -0.000003 0.000002 0.056697 -0.887829 7.305597 -0.000008 -0.000019 0.000002 0.000007 0.000005 0.000016 -0.000001 -0.000000 0.000001 -117.982161 4.032722 21.373446 89.931509 8.222492 0.215668 10.034811 -0.313692 -6.858159 -0.692239 0.000003 0.000004 -0.000000 0.000000 0.000000 -57.291483 -5.040345 -22.401779 120.928035 1.367291 -2.568502 13.387143 15.187101 29.533738 -84.047766 3.455475 -5.705660 0.000001 0.000001 -0.000000 
